<svg width="40" height="42" viewBox="0 0 40 42" fill="none" xmlns="http://www.w3.org/2000/svg">
<path d="M20.0045 28.35C18.0959 28.35 16.2655 27.5756 14.9159 26.1972C13.5664 24.8188 12.8082 22.9493 12.8082 21C12.8082 19.0507 13.5664 17.1812 14.9159 15.8028C16.2655 14.4244 18.0959 13.65 20.0045 13.65C21.9131 13.65 23.7436 14.4244 25.0931 15.8028C26.4427 17.1812 27.2009 19.0507 27.2009 21C27.2009 22.9493 26.4427 24.8188 25.0931 26.1972C23.7436 27.5756 21.9131 28.35 20.0045 28.35ZM35.2814 23.037C35.3637 22.365 35.4253 21.693 35.4253 21C35.4253 20.307 35.3637 19.614 35.2814 18.9L39.6198 15.477C40.0105 15.162 40.1133 14.595 39.8665 14.133L35.7543 6.867C35.5076 6.405 34.9524 6.216 34.5001 6.405L29.3804 8.505C28.3112 7.686 27.2009 6.972 25.9056 6.447L25.1448 0.882C25.0626 0.378 24.6308 0 24.1168 0H15.8923C15.3783 0 14.9465 0.378 14.8643 0.882L14.1035 6.447C12.8082 6.972 11.6979 7.686 10.6287 8.505L5.50899 6.405C5.05665 6.216 4.5015 6.405 4.25477 6.867L0.142553 14.133C-0.124741 14.595 -0.0013741 15.162 0.389286 15.477L4.72767 18.9C4.64543 19.614 4.58374 20.307 4.58374 21C4.58374 21.693 4.64543 22.365 4.72767 23.037L0.389286 26.523C-0.0013741 26.838 -0.124741 27.405 0.142553 27.867L4.25477 35.133C4.5015 35.595 5.05665 35.763 5.50899 35.595L10.6287 33.474C11.6979 34.314 12.8082 35.028 14.1035 35.553L14.8643 41.118C14.9465 41.622 15.3783 42 15.8923 42H24.1168C24.6308 42 25.0626 41.622 25.1448 41.118L25.9056 35.553C27.2009 35.007 28.3112 34.314 29.3804 33.474L34.5001 35.595C34.9524 35.763 35.5076 35.595 35.7543 35.133L39.8665 27.867C40.1133 27.405 40.0105 26.838 39.6198 26.523L35.2814 23.037Z" fill="white" fill-opacity="1"/>
</svg>
