<svg width="32" height="16" viewBox="0 0 32 16" fill="none" xmlns="http://www.w3.org/2000/svg">
<path d="M3.04 8C3.04 5.264 5.264 3.04 8 3.04H14.4V0H8C5.87827 0 3.84344 0.842855 2.34315 2.34315C0.842855 3.84344 0 5.87827 0 8C0 10.1217 0.842855 12.1566 2.34315 13.6569C3.84344 15.1571 5.87827 16 8 16H14.4V12.96H8C5.264 12.96 3.04 10.736 3.04 8ZM9.6 9.6H22.4V6.4H9.6V9.6ZM24 0H17.6V3.04H24C26.736 3.04 28.96 5.264 28.96 8C28.96 10.736 26.736 12.96 24 12.96H17.6V16H24C26.1217 16 28.1566 15.1571 29.6569 13.6569C31.1571 12.1566 32 10.1217 32 8C32 5.87827 31.1571 3.84344 29.6569 2.34315C28.1566 0.842855 26.1217 0 24 0Z" fill="white" fill-opacity="1"/>
</svg>
